<svg version="1.1" xmlns="http://www.w3.org/2000/svg" style="display: block;" viewBox="0 0 2048 2048" width="1024" height="1024" preserveAspectRatio="none">
<defs>
	<linearGradient id="Gradient1" gradientUnits="userSpaceOnUse" x1="1623.49" y1="1608.25" x2="1621.13" y2="1605.26">
		<stop class="stop0" offset="0" stop-opacity="0.203922" stop-color="rgb(136,134,133)"/>
		<stop class="stop1" offset="1" stop-opacity="0.239216" stop-color="rgb(134,134,133)"/>
	</linearGradient>
	<linearGradient id="Gradient2" gradientUnits="userSpaceOnUse" x1="761.072" y1="1768.26" x2="762.164" y2="1763.77">
		<stop class="stop0" offset="0" stop-opacity="0.172549" stop-color="rgb(125,125,124)"/>
		<stop class="stop1" offset="1" stop-opacity="0.219608" stop-color="rgb(125,125,124)"/>
	</linearGradient>
	<linearGradient id="Gradient3" gradientUnits="userSpaceOnUse" x1="1137.56" y1="1782.89" x2="1137.29" y2="1779.05">
		<stop class="stop0" offset="0" stop-opacity="0.247059" stop-color="rgb(125,125,124)"/>
		<stop class="stop1" offset="1" stop-opacity="0.286275" stop-color="rgb(125,125,124)"/>
	</linearGradient>
	<linearGradient id="Gradient4" gradientUnits="userSpaceOnUse" x1="1639.81" y1="1597.23" x2="1635.35" y2="1591.95">
		<stop class="stop0" offset="0" stop-opacity="0.196078" stop-color="rgb(135,135,134)"/>
		<stop class="stop1" offset="1" stop-opacity="0.258824" stop-color="rgb(134,134,132)"/>
	</linearGradient>
	<linearGradient id="Gradient5" gradientUnits="userSpaceOnUse" x1="358.808" y1="1569.59" x2="363.689" y2="1565.01">
		<stop class="stop0" offset="0" stop-opacity="0.184314" stop-color="rgb(138,137,136)"/>
		<stop class="stop1" offset="1" stop-opacity="0.227451" stop-color="rgb(134,134,133)"/>
	</linearGradient>
	<linearGradient id="Gradient6" gradientUnits="userSpaceOnUse" x1="205.978" y1="1500.57" x2="219.641" y2="1481.22">
		<stop class="stop0" offset="0" stop-opacity="0.176471" stop-color="rgb(139,140,139)"/>
		<stop class="stop1" offset="1" stop-opacity="0.254902" stop-color="rgb(134,133,131)"/>
	</linearGradient>
	<linearGradient id="Gradient7" gradientUnits="userSpaceOnUse" x1="1764.69" y1="1527.45" x2="1746" y2="1486.71">
		<stop class="stop0" offset="0" stop-opacity="0.180392" stop-color="rgb(139,139,138)"/>
		<stop class="stop1" offset="1" stop-opacity="0.294118" stop-color="rgb(146,145,144)"/>
	</linearGradient>
	<linearGradient id="Gradient8" gradientUnits="userSpaceOnUse" x1="413.337" y1="1630.22" x2="448.501" y2="1548.54">
		<stop class="stop0" offset="0" stop-opacity="0.262745" stop-color="rgb(126,127,125)"/>
		<stop class="stop1" offset="1" stop-opacity="0.309804" stop-color="rgb(140,139,138)"/>
	</linearGradient>
	<linearGradient id="Gradient9" gradientUnits="userSpaceOnUse" x1="750.772" y1="1765.31" x2="757.574" y2="1736.58">
		<stop class="stop0" offset="0" stop-opacity="0.2" stop-color="rgb(126,126,125)"/>
		<stop class="stop1" offset="1" stop-opacity="0.376471" stop-color="rgb(122,121,120)"/>
	</linearGradient>
	<linearGradient id="Gradient10" gradientUnits="userSpaceOnUse" x1="286.111" y1="1640" x2="396.605" y2="1300.51">
		<stop class="stop0" offset="0" stop-opacity="0" stop-color="rgb(126,125,125)"/>
		<stop class="stop1" offset="1" stop-opacity="0.0509804" stop-color="rgb(201,201,201)"/>
	</linearGradient>
	<linearGradient id="Gradient11" gradientUnits="userSpaceOnUse" x1="1362.94" y1="1024.38" x2="1950.37" y2="895.373">
		<stop class="stop0" offset="0" stop-opacity="0.00784314" stop-color="rgb(115,114,113)"/>
		<stop class="stop1" offset="1" stop-opacity="0" stop-color="rgb(197,196,197)"/>
	</linearGradient>
</defs>
<path transform="translate(0,0)" fill="rgb(254,254,254)" d="M 230.055 886.916 C 206.528 794.911 197.992 701.274 197.421 606.535 C 197.273 581.894 196.852 556.852 198.263 532.252 C 203.784 435.944 219.967 316.028 296.377 248.459 C 331.304 217.574 376.754 204.484 422.839 207.31 C 551.348 215.188 699.594 335.493 781.671 428.795 C 909.886 398.715 1047.25 393.792 1177.68 412.61 C 1205.05 416.558 1230.51 421.164 1257.13 428.685 C 1280.07 399.218 1318.91 362.635 1347.59 338.49 C 1453.92 248.959 1647.29 133.486 1763.59 269.997 C 1855.49 386.804 1845.75 616.575 1830.35 758.494 C 1826.28 796.035 1815.99 853.445 1804.75 889.671 C 1837.63 957.736 1857.13 1047.17 1862.25 1122.42 C 1862.99 1133.4 1864.25 1154.09 1863.17 1164.66 C 1889.21 1172.45 1908.52 1182 1922.26 1207.28 C 1932.57 1225.98 1934.81 1248.07 1928.48 1268.46 C 1920.46 1295.02 1899.86 1311.37 1874.65 1320.39 C 1872.13 1320.92 1869.59 1321.34 1867.16 1322.14 C 1855.7 1323.03 1850.84 1323.03 1839.49 1321.13 C 1837.44 1326.41 1835.36 1332.12 1833.09 1337.27 L 1828.19 1347.31 L 1836.04 1351.73 C 1884.35 1384.9 1881.11 1448.46 1834.86 1481.66 C 1824.53 1487.01 1816.55 1491.21 1805.21 1494.07 C 1781.67 1497.55 1764.83 1495.24 1743.93 1483.32 C 1733.23 1496.37 1721.81 1508.82 1709.73 1520.61 C 1706.74 1523.55 1692.3 1536.98 1690.63 1539.21 C 1687.45 1542.05 1678.96 1549.34 1676.57 1552.18 L 1663.65 1562.71 C 1540.31 1663.23 1403.27 1721.54 1247.89 1752.62 C 1223.23 1757.44 1198.42 1761.51 1173.5 1764.81 C 1162.67 1766.28 1144.11 1767.98 1133.94 1770.01 C 1099.78 1772.27 1069.31 1774.94 1034.85 1775.23 C 995.249 1775.57 959.311 1773.3 920.067 1770.89 C 850.324 1763.75 783.803 1753.5 716.006 1735.02 C 697.626 1729.98 679.369 1724.5 661.25 1718.58 C 651.625 1715.38 635.131 1709.18 625.938 1706.81 L 624.329 1706.41 C 613.536 1701.42 598.818 1696.05 587.557 1691.41 C 568.638 1683.54 549.926 1675.18 531.441 1666.34 C 435.466 1619.88 350.133 1554.09 280.802 1473.08 C 271.442 1478.83 261.694 1482.55 251.183 1485.66 C 242.404 1486.67 234.311 1487.87 225.451 1487.24 C 212.232 1486.17 204.041 1482.86 192.148 1477.44 C 184.602 1472.95 177.744 1467.39 171.788 1460.94 C 146.348 1433.41 144.613 1392.14 166.439 1361.78 C 171.505 1354.74 176.394 1350.25 182.817 1344.38 C 189.195 1339.75 193.847 1336.65 200.589 1332.58 L 197.563 1322.92 C 180.845 1326.98 174.567 1328.6 157.591 1327.35 C 130.033 1323.15 115.378 1310.23 99.4277 1287.84 C 79.7206 1245.58 89.9807 1201.72 130.005 1175.59 C 143.822 1166.57 157.741 1163.62 173.781 1160.71 C 169.652 1090.92 188.941 1002.5 210.99 936.726 C 216.284 920.935 224.02 902.938 230.055 886.916 z"/>
<path transform="translate(0,0)" fill="rgb(0,0,0)" d="M 405.691 266.42 C 407.221 266.467 408.75 266.528 410.28 266.602 C 503.539 271.12 620.727 360.152 686.55 421.611 C 712.348 445.7 739.341 474.8 763.125 501.089 C 776.127 497.906 790.14 493.11 803.455 489.616 C 825.837 483.97 848.411 479.12 871.137 475.076 C 1000.43 451.781 1149.73 458.773 1274.36 501.265 C 1332.81 431.144 1419.33 354.929 1498.56 309.929 C 1546.57 282.664 1605.73 256.079 1661.58 271.804 C 1693.89 280.901 1716.63 306.092 1732.5 334.594 C 1794.81 446.437 1784.72 676.979 1763.61 801.452 C 1758.74 830.184 1751.95 858.052 1743.92 886.04 C 1749.92 907.959 1763.58 939.988 1771.19 963.358 C 1797.95 1045.48 1808.89 1117.07 1802.7 1203.4 C 1816.89 1205.72 1909.76 1215.98 1866 1262.25 C 1857.57 1271.17 1811.77 1257.52 1794.91 1254.72 C 1784.05 1297.88 1773.51 1325.65 1753.95 1365.73 C 1774.2 1376.6 1832.82 1398.63 1808.89 1429.76 C 1791.19 1452.78 1748.61 1418.35 1727.77 1408.67 C 1702.85 1442.59 1685.83 1462.53 1655.51 1491.91 C 1631.81 1514.81 1594.23 1543.82 1566.43 1561.89 C 1340.84 1708.56 1042.92 1743.08 782.749 1688.42 C 605.873 1651.26 403.895 1556.24 302.418 1399.81 C 280.534 1408.65 262.629 1422.12 241.131 1430.35 C 229.748 1433.46 216.664 1426.73 211.774 1416.85 C 196.577 1386.14 256.354 1364.55 277.308 1354.31 C 260.294 1318.58 252.137 1294.12 241.433 1255.89 C 231.429 1258.16 221.601 1260.51 211.714 1263.01 C 191.685 1268.08 158.303 1283.07 148.264 1255.15 C 143.364 1241.51 151.017 1228.39 163.859 1222.92 C 185.709 1215.2 211.683 1209.91 234.263 1205.55 C 225.434 1109.8 244.22 1019.52 277.165 930.03 C 282.445 915.687 288.052 900.969 292.615 886.425 C 289.953 873.698 284.257 857.176 280.999 842.593 C 272.759 804.481 266.987 765.878 263.718 727.023 C 253.864 615.777 247.787 395.269 323.025 306.488 C 345.272 280.235 371.955 269.1 405.691 266.42 z"/>
<path transform="translate(0,0)" fill="rgb(30,30,31)" d="M 1619.7 314.387 C 1621.99 314.217 1624.33 314.262 1626.63 314.32 C 1645.33 314.787 1662.01 323.541 1674.65 337.027 C 1690.2 353.605 1699 374.973 1706.23 396.18 C 1741.97 500.853 1736.96 666.251 1719.69 775.332 C 1716.84 793.335 1713.65 811.478 1709.6 829.254 C 1705.38 847.797 1694.76 870.271 1696.29 889.223 C 1697.4 902.913 1707.68 921.925 1712.77 935.011 C 1717.65 947.607 1722.25 960.307 1726.57 973.102 C 1753.59 1052.92 1758.25 1115.47 1755.98 1198.22 C 1677.06 1197.49 1601.17 1201.67 1525.09 1224.58 C 1512.24 1229.61 1473.91 1236.17 1485.62 1257.28 C 1492.41 1269.51 1520.75 1260.8 1532.8 1258.73 C 1549.69 1255.66 1566.68 1253.13 1583.73 1251.14 C 1637.84 1244.7 1693.41 1244.99 1747.72 1248.15 C 1738.9 1282.06 1727.85 1317.79 1710.85 1348.66 C 1654.32 1322.36 1572.63 1312.42 1511.34 1303.4 C 1496.24 1301.18 1455.83 1294.89 1448.74 1311.34 C 1446.87 1315.63 1446.82 1320.49 1448.6 1324.82 C 1454.04 1337.73 1484.43 1338.17 1497.33 1339.86 C 1511.79 1341.89 1526.2 1344.19 1540.57 1346.76 C 1589.87 1355.9 1638.29 1369.29 1685.29 1386.78 C 1666.29 1412.5 1645.08 1436.52 1621.92 1458.57 C 1463.77 1610.55 1199.54 1670.56 986.5 1663.94 C 811.023 1658.49 622.851 1611.88 477.914 1509.37 C 442.859 1484.58 414.102 1457.83 384.648 1427.04 C 370.495 1411.05 357.558 1395.95 346.201 1377.77 C 396.797 1356.91 462.299 1347.1 516.948 1338.03 C 528.78 1336.06 624.912 1340.9 578.216 1301.78 C 574.642 1298.79 552.092 1298.72 546.001 1298.79 C 467.528 1299.58 394.914 1312.13 321.139 1338.36 C 305.151 1303.69 298.484 1287.18 289.106 1249.25 C 372.337 1239.54 456.645 1249.22 538.103 1263.81 C 552.674 1266.42 554.757 1245.12 541.035 1237.01 C 530.448 1230.75 520.284 1228.13 508.456 1224.58 C 439.704 1207.48 352.966 1191.08 282.071 1199.82 C 281.547 1183.59 280.079 1168.01 280.239 1151.52 C 280.791 1094.48 291.894 1029.87 309.242 975.553 C 313.273 963.263 317.575 951.063 322.144 938.963 C 326.208 928.366 339.631 896.934 339.61 888.029 C 339.577 873.199 329.801 845.517 326.463 829.126 C 321.318 804.111 317.128 778.909 313.901 753.574 C 301.072 655.829 293.688 422.827 355.711 343.041 C 366.635 328.989 381.828 317.027 400.09 315.233 C 411.397 314.122 423.311 316.041 434.346 318.382 C 519.84 336.518 616.774 418.966 677.97 478.743 C 690.657 491.136 702.487 504.15 714.419 517.254 C 721.635 525.179 728.936 534.239 737.226 541.028 C 744.111 546.667 750.457 549.728 759.527 549.256 C 775.979 548.402 810.208 536.572 828.741 532.305 C 883.51 519.694 939.933 510.925 996.207 510.029 C 1040.62 509.323 1084.72 509.998 1128.78 516.388 C 1156.47 520.404 1185.67 525.506 1212.74 532.755 C 1232.06 537.928 1251.48 546.29 1271.27 549.123 C 1278.79 550.199 1286.03 550.196 1293.01 546.822 C 1302.94 542.027 1334.55 504.573 1344.53 494.307 C 1410.45 426.47 1522.55 325.011 1619.7 314.387 z"/>
<path transform="translate(0,0)" fill="rgb(0,0,0)" d="M 1318.8 868.124 C 1422.1 861.484 1511.07 940.188 1517.08 1043.53 C 1523.09 1146.87 1443.85 1235.36 1340.47 1240.74 C 1237.98 1246.08 1150.42 1167.66 1144.46 1065.2 C 1138.5 962.75 1216.38 874.708 1318.8 868.124 z"/>
<path transform="translate(0,0)" fill="rgb(254,187,82)" d="M 1320.74 907.423 C 1353.71 903.795 1393.89 917.674 1419.09 938.708 C 1520.59 1023.43 1481.76 1206.59 1341.25 1219.98 C 1330.92 1220.18 1320.97 1220.56 1310.71 1219.26 C 1180.98 1202.78 1142.43 1038.96 1227 949.828 C 1253.65 921.739 1282.85 910.576 1320.74 907.423 z"/>
<path transform="translate(0,0)" fill="rgb(0,0,0)" d="M 1278.43 944.268 C 1298.91 942.277 1314.8 946.148 1332.12 957.476 C 1409.38 1008.01 1400.97 1167.7 1301.39 1186.77 C 1169.56 1198.78 1162.31 963.245 1278.43 944.268 z"/>
<path transform="translate(0,0)" fill="rgb(254,254,254)" d="M 1239.64 989.883 C 1252.4 987.105 1264.99 995.226 1267.72 1008 C 1270.44 1020.77 1262.28 1033.32 1249.5 1036 C 1236.78 1038.67 1224.31 1030.55 1221.6 1017.85 C 1218.88 1005.15 1226.95 992.645 1239.64 989.883 z"/>
<path transform="translate(0,0)" fill="rgb(0,0,0)" d="M 688.27 868.419 C 790.608 859.629 880.773 935.279 889.898 1037.59 C 899.022 1139.9 823.668 1230.31 721.39 1239.77 C 618.637 1249.27 527.714 1173.49 518.547 1070.71 C 509.38 967.924 585.458 877.25 688.27 868.419 z"/>
<path transform="translate(0,0)" fill="rgb(254,187,82)" d="M 702.397 907.459 C 740.97 907.722 769.934 916.443 799.432 942.266 C 898.187 1028.72 853.503 1216.01 712.292 1220.22 C 511.66 1220.98 509.364 914.136 702.397 907.459 z"/>
<path transform="translate(0,0)" fill="rgb(0,0,0)" d="M 737.326 944.201 C 864.285 933.014 881.14 1161.73 758.701 1186.7 C 739.991 1188.71 721.058 1185.73 704.935 1175.5 C 625.036 1124.81 640.069 964.977 737.326 944.201 z"/>
<path transform="translate(0,0)" fill="rgb(254,254,254)" d="M 696.475 989.129 C 709.27 988.886 719.92 998.898 720.466 1011.68 C 721.013 1024.47 711.255 1035.35 698.486 1036.2 C 689.953 1036.77 681.783 1032.67 677.138 1025.49 C 672.493 1018.31 672.103 1009.17 676.118 1001.62 C 680.134 994.074 687.925 989.292 696.475 989.129 z"/>
<path transform="translate(0,0)" fill="rgb(0,0,0)" d="M 1582.08 412.301 C 1636.58 407.321 1650.53 482.549 1656.01 522.066 C 1661.91 564.528 1663.92 724.836 1639.86 753.74 C 1634.02 760.668 1625.66 764.978 1616.63 765.712 C 1599.46 766.966 1584.28 746.724 1573.21 735.419 C 1562.37 724.339 1551.22 713.565 1539.77 703.11 C 1501.32 665.335 1454.34 634.996 1409.08 606.447 C 1387.73 592.981 1394.84 570.87 1407.62 554.556 C 1440.51 512.554 1528.79 419.787 1582.08 412.301 z"/>
<path transform="translate(0,0)" fill="rgb(254,187,82)" d="M 1587.88 455.983 C 1600.06 455.461 1604.33 476.499 1606.8 486.558 C 1624.74 559.521 1618.96 639.537 1609.67 713.428 C 1587.56 688.318 1567.47 669.609 1541.46 648.188 C 1506.3 620.183 1480.5 603.92 1442.95 580.309 C 1473.22 535.642 1537.04 473.881 1587.88 455.983 z"/>
<path transform="translate(0,0)" fill="rgb(0,0,0)" d="M 438.808 412.258 C 497.476 407.149 599.736 516.052 632.257 562.084 C 658.014 598.541 616.085 611.633 591.878 627.817 C 561.137 648.37 532.328 669.511 505.033 694.333 C 493.411 704.871 481.749 715.205 470.724 726.392 C 460.362 736.908 450.414 748.675 439.085 758.141 C 435.624 761.033 431.013 764.529 426.522 765.523 C 419.504 767.077 410.345 763.8 404.606 759.893 C 392.118 751.389 388.945 736.432 386.339 722.492 C 373.464 653.616 364.483 493.698 404.704 435.905 C 413.199 423.698 423.808 414.933 438.808 412.258 z"/>
<path transform="translate(0,0)" fill="rgb(254,187,82)" d="M 442.361 455.676 C 451.752 455.865 465.06 462.675 473.011 467.501 C 517.144 494.289 562.875 538.345 591.725 580.814 C 555.328 602.276 531.193 618.774 497.748 645.185 C 478.052 658.193 442.138 694.124 426.633 712.65 C 415.794 654.34 407.595 506.834 442.361 455.676 z"/>
<path transform="translate(0,0)" fill="rgb(0,0,0)" d="M 997.732 1153.41 C 1003.65 1152.45 1011.93 1152.43 1018.06 1152.49 C 1140.64 1153.75 1142.24 1234.6 1040.77 1283.68 C 1040.7 1306.52 1041.48 1325.15 1062.56 1339.64 C 1095.33 1362.15 1160.37 1348.77 1168.54 1305.47 C 1169.9 1298.25 1171.02 1287.77 1175.33 1281.45 C 1180.72 1273.53 1193.7 1273.92 1200.63 1279.82 C 1217.85 1297.6 1202.09 1339.96 1188.2 1354.97 C 1169.45 1375.23 1141.6 1386 1115.53 1387.86 C 1084.01 1390.11 1052.92 1385.44 1028.78 1364.43 C 1025.51 1361.47 1021.62 1357.22 1018.48 1353.97 C 998.54 1375.24 981.439 1384.29 951.465 1387.5 C 917.871 1390.24 885.385 1384.69 857.986 1363.3 C 838.61 1348.17 816.389 1303.22 832.068 1279.68 C 834.05 1276.7 840.147 1274.44 843.893 1274.54 C 847.142 1274.62 854.073 1275.72 856.664 1278.59 C 867.272 1296.34 865.315 1314.25 881.468 1330.01 C 895.315 1343.51 912.136 1349.89 931.369 1350.24 C 949.119 1350.56 970.598 1345.29 983.292 1332.43 C 997.672 1317.87 998.104 1302.93 998.154 1284.27 C 968.058 1267.61 930.292 1243.18 923.887 1205.88 C 917.169 1166.76 969.032 1156.2 997.732 1153.41 z"/>
<path transform="translate(0,0)" fill="rgb(235,128,68)" d="M 997.281 1186.38 C 1015.9 1184 1070.73 1185.98 1082.93 1199.65 C 1089.25 1215.68 1047.9 1247.51 1035.14 1254.24 C 1027.7 1257.61 1023.74 1258.55 1015.93 1259.96 C 1013.57 1259.14 1011.24 1258.25 1008.94 1257.28 C 983.49 1246.29 962.329 1225.69 952.068 1199.77 C 965.838 1189.79 980.775 1188.22 997.281 1186.38 z"/>
<path transform="translate(0,0)" fill="rgb(0,0,0)" d="M 709.255 737.367 C 734.295 733.752 777.656 737.317 770.336 773.27 C 765.783 795.633 724.893 783.69 708.634 787.568 C 694.415 790.96 687.524 794.208 675.127 801.66 C 667.738 807.547 659.745 814.326 650.276 816.009 C 622.985 820.859 618.854 791.638 633.466 774.455 C 653.177 751.276 679.934 741.049 709.255 737.367 z"/>
<path transform="translate(0,0)" fill="rgb(0,0,0)" d="M 1302.07 736.426 C 1327.42 734.802 1354.61 743.935 1375.15 758.772 C 1389.78 769.337 1406 791.44 1391.87 808.761 C 1388.49 812.91 1383.57 815.518 1378.24 815.994 C 1370.27 816.677 1364.09 812.641 1358.35 807.756 C 1322.32 770.748 1280.08 796.207 1263.27 784.363 C 1258.29 780.823 1255.07 775.315 1254.42 769.237 C 1251.58 744.411 1283.64 737.823 1302.07 736.426 z"/>
<path transform="translate(0,0)" fill="url(#Gradient11)" d="M 1763.59 269.997 L 1765.25 268.282 C 1763.85 260.626 1750.12 251.531 1744.98 245.927 C 1744.18 245.055 1740.06 237.9 1739.26 236.542 C 1743.11 238.296 1744.11 240.616 1746.39 242.73 C 1747.31 243.574 1749.38 241.312 1753.43 244.473 L 1753.65 245.486 C 1754.36 248.633 1753.93 248.468 1755.79 250.769 L 1756.67 248.989 L 1754.78 246.067 C 1756.2 244.429 1755.29 245.086 1758.14 244.824 C 1759.39 247.899 1758.81 248.397 1758.32 252.04 C 1762.84 257.615 1774.9 260.436 1775.46 262.537 C 1777.71 270.97 1768.11 272.443 1784.75 275.253 C 1783.93 279.534 1782.03 274.369 1783.4 279.703 C 1785.94 280.872 1792.56 283.29 1793.44 285.154 L 1790.58 286.446 C 1792.81 290.133 1795.11 289.356 1796.69 293.981 C 1796.22 297.173 1795.75 297.614 1794.24 300.432 C 1794.75 303.863 1794.1 302.299 1796.62 305.106 C 1798.15 303.685 1797.49 304.543 1798.51 302.456 C 1801.16 305.008 1802.82 307.057 1806.84 306.219 C 1810.26 312.321 1805.02 308.358 1812.1 316.494 C 1811.74 321.235 1810.35 332.473 1812.34 336.888 C 1813.75 339.653 1819.95 340.722 1818.76 344.118 C 1817.57 347.552 1825.2 356.669 1825.29 358.419 C 1826.12 374.475 1824.96 372.479 1835.14 385.312 L 1838.54 385.602 C 1839.36 387.188 1839.29 386.435 1839.11 387.795 L 1837.49 388.687 L 1835.11 387.644 L 1835.16 389.713 L 1838.14 392.475 C 1836.12 396.133 1835.8 395.427 1835.88 399.02 C 1837.69 401.269 1842.43 404.147 1842.54 406.575 C 1842.98 415.954 1844.04 441.528 1850.15 447.99 L 1849.76 447.832 C 1851.91 449.809 1853.26 450.527 1853.73 453.588 L 1853.03 454.77 L 1850.2 453.396 C 1849.16 461.004 1854.26 474.537 1854.45 482.348 C 1854.65 490.647 1847.53 485.482 1856.99 494.712 C 1856.74 501.096 1853.94 504.234 1850.23 509.361 C 1853.97 515.719 1860.88 518.214 1862.7 522.501 L 1861.85 523.449 L 1856.83 521.849 L 1855.21 522.878 C 1853.77 531.022 1861.12 533.739 1859.32 538.37 L 1857.27 539.681 C 1857.2 551.668 1859.42 563.127 1859.47 575.496 L 1859.85 573.632 L 1860.74 573.643 C 1860.36 579.973 1860.83 584.459 1862.16 590.607 C 1862.21 590.835 1859.69 594.167 1859.89 597.779 C 1861.88 599.016 1862.27 599.111 1864.49 599.925 C 1864.99 603.102 1864.5 602.813 1863.22 606.312 L 1862.29 606.753 L 1860.29 601.295 C 1859.45 604.539 1859.81 607.968 1861.48 610.873 L 1863.49 608.726 L 1864.37 609.877 C 1863.25 616.55 1859.27 617.656 1859.4 622.773 L 1861.93 624.729 L 1860.91 627.5 L 1861.7 628.943 L 1864.79 628.546 L 1865.41 629.654 C 1863.43 632.269 1863.23 630.238 1861.58 631.515 C 1860 632.733 1858.05 657.101 1858.35 659.96 C 1860.46 660.528 1859.59 660.431 1861.89 659.83 C 1861.74 662.92 1861.85 661.895 1860.71 664.902 L 1861.49 666.298 C 1863.27 665.862 1862.48 666.338 1863.72 664.657 L 1865.07 667.444 L 1864.16 669.072 C 1860.74 668.117 1858.95 666.499 1856.07 664.448 C 1855.86 669.11 1858.55 669.955 1862.24 672.474 C 1862.08 677.353 1860.41 680.615 1861.76 683.409 L 1863.91 683.464 L 1863.83 685.184 C 1861.81 685.775 1862.89 685.664 1860.29 684.377 L 1860.15 686.71 L 1862.2 688.495 C 1860.23 690.647 1861.02 689.92 1858.25 691.269 C 1856.71 695.142 1856.6 696.284 1855.91 700.464 L 1853 701.575 C 1853.29 710.966 1862.29 707.558 1854.41 717.878 C 1854.18 720.84 1854.03 720.689 1855.44 723.258 L 1859.69 725.607 C 1860.14 735.875 1847.65 730.507 1854.43 757.243 C 1850.9 762.101 1846.34 765.916 1846.31 770.319 C 1848.53 773.381 1848.71 773.17 1852.16 774.444 C 1848.59 776.404 1847.1 773.116 1846.75 776.959 C 1846.04 784.844 1845.46 792.676 1846.29 800.556 C 1846.57 803.233 1847.18 806.221 1845.78 807.656 C 1840.18 813.392 1840.94 833.546 1841.75 841.991 C 1840.1 842.638 1838.59 843.275 1837.14 844.294 L 1838.1 859.509 L 1837.21 860.003 C 1834.53 861.522 1833.6 861.743 1832.21 864.494 L 1832.28 866.442 C 1834.36 868.231 1834.72 868.005 1837.49 868.591 L 1837.85 869.693 L 1833.34 870.166 C 1832.74 872.646 1833.29 873.355 1833.99 875.907 C 1831.1 879.404 1827.36 880.801 1828.04 884.92 C 1828.98 890.662 1835.3 892.737 1833.48 899.363 L 1829.47 900.874 L 1829.13 902.429 L 1830.32 904.181 C 1833.97 900.708 1832.75 900.866 1836.98 899.956 L 1837.83 900.714 C 1833.63 904.606 1835.22 898.23 1832.81 904.023 L 1833.6 905.796 L 1836.81 906.629 C 1838.08 917.497 1835.02 932.335 1844.06 937.792 C 1843.31 939.575 1843.78 938.613 1842.57 940.639 C 1842.87 944.368 1842.78 944.989 1844.38 948.512 L 1845.64 948.617 C 1847.55 948.793 1846.81 948.704 1848.84 949.097 C 1849.31 952.13 1849.17 953.407 1849.04 956.403 L 1851.67 956.458 C 1852.78 962.004 1845.96 965.937 1856.54 969.392 C 1856.28 971.592 1855.6 972.767 1853.89 974.462 C 1851.78 976.543 1856.37 987.024 1857.55 990.451 L 1861.05 990.998 C 1862.98 998.239 1861.3 1003.66 1860.15 1010.64 C 1859.62 1013.91 1868.9 1016.93 1867.78 1019.47 C 1867.11 1021.02 1867.16 1024.32 1867.85 1026 C 1869.98 1027.01 1869.13 1026.71 1871.64 1026.75 C 1871.43 1033.42 1862.8 1034.55 1872.62 1040.26 C 1872.07 1043.86 1870.69 1050.46 1871.92 1053.74 C 1875.69 1056.53 1876.11 1055.8 1876.88 1059.24 C 1876.47 1060.6 1873.09 1071.37 1873.28 1071.84 C 1875.85 1078.14 1882.24 1082.43 1882.45 1089.73 C 1880.6 1090.39 1878.75 1091.03 1876.89 1091.64 C 1877.49 1095.94 1880.04 1095.87 1884 1097.15 C 1883.21 1100.71 1880.53 1101.56 1879.02 1103.71 C 1878.36 1104.65 1883.37 1115.14 1883.34 1115.2 C 1880.96 1119.96 1877.7 1119.74 1879.95 1127.64 L 1881 1128.3 C 1883.5 1129.87 1885.07 1130.45 1886.34 1133.04 C 1885.02 1135.88 1884.24 1138.44 1881.82 1140.3 C 1881.16 1137.67 1881.23 1136.82 1881.13 1134.14 C 1878.91 1136.11 1879.74 1134.91 1878.9 1138.06 C 1879.92 1143.59 1882.38 1146.34 1886.49 1150.16 C 1887.29 1155.56 1887.61 1163.31 1889.65 1167.76 L 1891 1168.37 C 1894.03 1167 1894.62 1166.21 1896.99 1163.99 C 1901.5 1165.15 1901.2 1166.58 1902.17 1170.99 C 1902.97 1171.02 1907.99 1171.19 1908.37 1171.61 C 1912.44 1176.1 1918.77 1181.79 1922.59 1186.21 C 1928.77 1193.37 1938.99 1205.44 1941.61 1214.56 C 1943.46 1221.01 1943.1 1223.92 1946.16 1230.86 C 1943.84 1242.27 1943.79 1240 1950.82 1248.99 C 1947.98 1260.5 1946.12 1257.3 1949.07 1266.44 L 1946.74 1266.49 L 1946.28 1267.76 L 1949.79 1268.26 C 1947.95 1270.11 1946.13 1271.98 1944.32 1273.86 C 1944.78 1279.78 1948.17 1274.95 1945.8 1279.8 C 1936.03 1282.6 1947.85 1290.47 1938.57 1294.81 C 1936.16 1295.93 1934.08 1296.26 1932.65 1298.6 C 1933.62 1301.98 1934.47 1301.7 1937.82 1304.47 C 1933.65 1309.19 1924.49 1313.14 1924.27 1318.58 C 1925.8 1322.74 1926.29 1321.93 1925.04 1324.99 C 1920.46 1323.28 1919.03 1321.51 1915.31 1322.34 L 1914.43 1324.03 C 1917.55 1327.44 1922.2 1325.42 1925.58 1329.01 C 1925.29 1331.92 1925.8 1330.6 1923.74 1332.97 C 1921.93 1331.55 1922.36 1331.96 1920.95 1330.23 L 1919.07 1331.12 C 1918.32 1333.82 1918.78 1334.03 1919.77 1336.78 C 1914.88 1341.26 1907.9 1344.04 1901.35 1344.62 L 1900.53 1348.01 C 1894.94 1348.68 1896.8 1346 1891.3 1347.31 C 1888.84 1352.52 1892.11 1354.64 1889.43 1358.18 C 1888.11 1356.55 1888.7 1357.5 1887.78 1355.25 C 1882.97 1357.27 1883.54 1360.74 1876.93 1362.99 C 1873.36 1370.58 1887.39 1387.8 1886.7 1393.23 L 1883.98 1394.31 C 1884.48 1395.4 1888.01 1399.44 1888.04 1398.1 C 1887.79 1408.71 1881.84 1407.85 1890.95 1414.49 C 1885.46 1419.37 1884.83 1422.9 1886.75 1429.88 C 1888.96 1429.5 1888.09 1429.77 1890 1428.16 C 1891.85 1433.7 1888.54 1440.83 1886.66 1446.61 L 1884.14 1444.64 C 1879.52 1450.45 1885.56 1458.25 1883.78 1463.99 C 1882.74 1462.61 1881.87 1461.39 1880.9 1459.96 L 1879.81 1460.51 L 1880.69 1463.85 C 1877.96 1468.05 1876.73 1468.33 1876.76 1472.43 L 1878.4 1475.3 C 1877.41 1478.63 1875.33 1481.47 1873.45 1484.43 L 1872.33 1484.52 C 1870.5 1484.69 1871.17 1484.62 1869.05 1485.01 C 1865.4 1490.24 1865.45 1496.28 1863.74 1498.21 C 1859.63 1502.83 1854.43 1501.86 1853.6 1510.62 L 1854.29 1512.36 C 1851.14 1516.24 1849.75 1515.19 1845.12 1513.87 C 1839.6 1515.94 1838.27 1518.31 1834.86 1523.26 C 1827.85 1525.7 1824.88 1526.19 1819.1 1530.9 C 1815.42 1530.79 1810.59 1530.07 1807.68 1531.55 L 1807.39 1534.54 C 1796.78 1534.58 1795.86 1531.39 1789.43 1538.56 C 1789.43 1538.56 1772.22 1538.48 1769.72 1538.47 C 1768.67 1540.81 1769.01 1539.93 1769.04 1542.75 L 1767.68 1543.2 C 1766.85 1541.23 1767.17 1542.25 1766.73 1540.13 C 1751.82 1534.53 1756.01 1541.32 1749.23 1542.07 L 1746.55 1540.25 C 1745.14 1543.24 1745.19 1544.21 1744.81 1547.42 L 1743.24 1549.17 C 1741.8 1548.91 1740.68 1548.69 1739.24 1548.37 C 1739.6 1551.19 1740.4 1552 1741.89 1554.45 L 1740.55 1555.13 C 1736.32 1551.85 1736.11 1549.59 1732.33 1548.62 L 1730.92 1549.91 C 1731.47 1552.56 1731.72 1553.7 1731.94 1556.45 C 1729.5 1558.68 1729.2 1558.36 1725.89 1559.44 L 1725 1561.11 C 1725.75 1562.57 1726.4 1563.45 1726.64 1565.08 C 1723.27 1565.99 1721.9 1565.7 1718.47 1565.49 C 1711.67 1572.11 1714.81 1575.31 1707.02 1579.36 C 1700.1 1582.97 1701.45 1577.82 1696.31 1580.99 C 1695.61 1586.74 1702.85 1584.99 1694.95 1592.4 C 1690.59 1596.49 1684.62 1594.25 1680.35 1597.3 L 1682.31 1599.72 L 1680.71 1600.21 L 1678.18 1598.31 C 1675.32 1600.44 1669.03 1610.17 1666.67 1613.59 C 1664.91 1611.2 1665.96 1611.63 1663.81 1611.25 C 1660.29 1613.92 1651.9 1623.13 1650.89 1626.91 C 1648.5 1626.84 1648.97 1626.9 1646.77 1626.43 C 1637.04 1631.85 1629.6 1634.91 1621.61 1643.06 C 1618.67 1646.07 1612.43 1647.74 1608.51 1649.1 C 1602.46 1651.02 1598.06 1657.42 1592.92 1661.03 C 1591.84 1661.8 1589.92 1662.47 1588.64 1662.76 C 1584.6 1663.69 1560.92 1675.71 1559.4 1677.53 C 1547.01 1682.38 1535.37 1690.19 1522.41 1692.28 L 1522 1694 C 1518.36 1695.11 1516.2 1697.43 1513.95 1696.16 C 1510.47 1694.2 1506.03 1694.38 1501.84 1694.22 C 1507.2 1690.44 1520.89 1684.66 1527.94 1680.49 C 1550.74 1667.06 1573.59 1653.86 1596.1 1639.9 C 1619.47 1625.42 1640.93 1606.85 1662.91 1590.73 C 1677.87 1579.76 1686.99 1567.72 1699.35 1554.2 C 1704.82 1548.22 1715.47 1542.44 1720.82 1535.33 C 1744.79 1509.8 1751.99 1515.18 1784.46 1516.7 C 1806.94 1517.76 1820.51 1506.59 1836.48 1492.24 C 1839.49 1489.54 1841.95 1487.04 1841.99 1483.05 C 1838.64 1481.02 1839.41 1481.69 1834.86 1481.66 C 1881.11 1448.46 1884.35 1384.9 1836.04 1351.73 C 1840.3 1351.61 1847.38 1346.94 1851.34 1344.54 C 1858.33 1340.29 1890.39 1331.35 1884.91 1320.05 L 1882.66 1319.46 C 1878.96 1321.17 1878.68 1321.11 1874.65 1320.39 C 1899.86 1311.37 1920.46 1295.02 1928.48 1268.46 C 1934.81 1248.07 1932.57 1225.98 1922.26 1207.28 C 1908.52 1182 1889.21 1172.45 1863.17 1164.66 C 1864.25 1154.09 1862.99 1133.4 1862.25 1122.42 C 1857.13 1047.17 1837.63 957.736 1804.75 889.671 C 1815.99 853.445 1826.28 796.035 1830.35 758.494 C 1845.75 616.575 1855.49 386.804 1763.59 269.997 z"/>
<path transform="translate(0,0)" fill="rgb(135,134,133)" fill-opacity="0.215686" d="M 1805.21 1494.07 C 1816.55 1491.21 1824.53 1487.01 1834.86 1481.66 C 1839.41 1481.69 1838.64 1481.02 1841.99 1483.05 C 1841.95 1487.04 1839.49 1489.54 1836.48 1492.24 C 1820.51 1506.59 1806.94 1517.76 1784.46 1516.7 C 1751.99 1515.18 1744.79 1509.8 1720.82 1535.33 C 1715.47 1542.44 1704.82 1548.22 1699.35 1554.2 C 1686.99 1567.72 1677.87 1579.76 1662.91 1590.73 C 1640.93 1606.85 1619.47 1625.42 1596.1 1639.9 C 1573.59 1653.86 1550.74 1667.06 1527.94 1680.49 C 1520.89 1684.66 1507.2 1690.44 1501.84 1694.22 C 1492.11 1697.21 1485.62 1703.04 1476.66 1706.36 C 1459.13 1712.86 1442.38 1720.72 1424.98 1727.54 C 1418.5 1730.08 1412.55 1734.54 1406.21 1737.38 C 1386.01 1744.1 1366 1751.14 1346.18 1758.91 C 1341.87 1760.61 1335.75 1761.72 1331.08 1762.9 C 1294.39 1772.19 1257.77 1781.03 1220.78 1788.88 C 1209.31 1791.31 1198.99 1792.39 1187.23 1793.1 C 1161.91 1796.98 1137.03 1799.94 1111.32 1799.41 C 1104.81 1799.27 1095.89 1801.34 1089.25 1801.87 C 1083.95 1802.65 1077.82 1801.73 1072.55 1802.29 C 1064.68 1803.13 1055.27 1803.46 1047.61 1804 C 1037.71 1804.69 1031.36 1800.1 1023.67 1805.55 C 1022.97 1806.05 998.898 1804.55 996.301 1804.96 C 962.996 1805.73 929.841 1802.42 896.769 1798.77 C 882.21 1797.16 867.277 1796.46 852.695 1794.42 C 813.147 1788.87 773.71 1778.87 734.657 1770.42 C 728.669 1769.12 722.726 1767.93 716.817 1766.35 C 683.242 1755.68 651.303 1739.88 617.53 1730.07 C 617.476 1730.05 617.423 1730.02 617.369 1730 C 560.779 1705.93 505.369 1679.71 452.73 1647.57 C 446.101 1643.52 439.569 1637.8 433.19 1633.17 L 392.366 1603.98 C 381.997 1596.63 369.012 1589.81 358.631 1582.51 C 353.077 1578.17 348.532 1570.45 343.438 1565.9 C 322.514 1547.18 306.271 1518.69 282.102 1504.58 C 275.32 1500.63 247.666 1504.1 241.354 1506.95 C 240.152 1504.52 239.412 1504.14 237.352 1502.43 L 236.655 1501.87 C 237.014 1498.41 239.72 1500.79 242.468 1497.16 L 233.482 1496.87 C 239.417 1496.24 244.91 1495.89 250.65 1494.15 C 252.879 1494.56 263.005 1491.08 265.651 1490.14 C 271.047 1492.5 281.995 1487.59 290.683 1497.52 C 301.323 1509.69 338.092 1538.44 344.881 1550.54 L 342.469 1551.75 C 342.714 1555.17 359.619 1575.63 361.121 1575.96 C 375.947 1579.24 382.952 1588.74 395.829 1597.67 C 408.686 1607.61 420.573 1618.61 436.198 1624.4 C 449.77 1634.44 466.546 1643.42 481.129 1651.85 C 486.447 1654.92 505.913 1664.99 509.165 1668.23 C 512.877 1670.36 524.784 1677.63 528.11 1678.26 C 549.715 1687.11 608.62 1716.66 627.474 1719.15 C 634.181 1721.66 640.139 1725 646.426 1727.33 C 662.275 1733.22 678.069 1737.26 693.007 1745.73 C 696.99 1747.99 703.807 1748.77 706.719 1752.14 C 704.564 1752.93 703.416 1753.26 701.186 1753.82 C 705.683 1755.95 712.369 1754.11 712.442 1754.17 C 723.976 1764.31 731.418 1752.39 744.366 1758.1 C 747.303 1759.39 749.141 1758.75 752.454 1761.18 C 752.593 1764.82 752.584 1766.26 755.347 1768.81 C 758.214 1771.49 762.129 1772.74 766.019 1772.23 C 770.389 1771.67 770.556 1769.59 774.02 1767.78 L 774.034 1766.82 C 780.581 1765.13 787.383 1768.58 789.761 1764.64 C 786.415 1763.02 772.016 1759.01 768.299 1758.73 C 773.334 1757.67 775.945 1757.15 780.453 1759.37 C 788.037 1763.12 798.32 1760.48 806.591 1763.6 C 804.032 1765.01 801.703 1766.12 799.08 1767.36 L 799.096 1768.15 C 803.424 1768.96 808.766 1769.57 812.495 1771.62 L 812.683 1773.08 C 807.592 1775.39 808.76 1772.04 805.33 1774.44 C 809.944 1782.54 817.994 1774.68 822.936 1777.35 C 823.299 1777.54 825.79 1780.63 826.254 1781.21 C 833.721 1784.78 837.981 1778.22 846.801 1782.39 C 850.279 1784.04 855.993 1786.61 859.676 1785.2 C 853.919 1782.47 842.23 1779.9 839.137 1777.49 L 839.986 1776.93 C 846.767 1778.6 890.329 1777.96 899.927 1778.08 L 900.989 1777.18 C 914.315 1779.09 924.44 1781.64 936.888 1784.23 C 947.973 1786.54 968.013 1785.46 980.169 1785.93 L 980.571 1784.9 L 976.221 1783.59 C 979.688 1783.5 1042.78 1783.86 1042.74 1783.84 L 1041.01 1784.94 C 1033.4 1784.94 1033.3 1784.61 1025.91 1786.38 L 1025.53 1787.63 C 1028.89 1789.5 1070.71 1789.4 1074.15 1786.66 C 1067.92 1783.47 1056.37 1786.58 1052.3 1784.3 C 1054.09 1784.48 1117.04 1779.42 1116.87 1779.49 C 1131.62 1785.68 1145.08 1783.51 1160.3 1781.76 L 1160.13 1782.05 C 1166.01 1782.34 1169.05 1779.13 1170.17 1773.82 L 1172.21 1772.48 L 1171.55 1772.03 L 1173.14 1771.34 C 1175.68 1773.33 1177.53 1773.93 1180.7 1773.66 L 1183.34 1769.72 C 1189.58 1767.19 1191.74 1773.73 1197.86 1767.94 C 1201.3 1766.87 1202.16 1767.39 1205.62 1768.28 C 1199.29 1772.51 1185.56 1773.31 1177.91 1775.41 L 1177.62 1776.6 C 1182.01 1778.67 1230.7 1770.53 1234.65 1767.53 C 1232.77 1766.23 1222 1768.3 1217.08 1766.89 L 1215.52 1767.84 C 1213.1 1767.16 1212.42 1767.58 1209.79 1767.93 L 1210.1 1766.92 C 1216.25 1764.04 1240.41 1762.08 1248.44 1760.21 C 1276.56 1753.65 1304.61 1746.58 1332.6 1739.52 L 1331.03 1741.77 L 1331.53 1743.02 C 1347.12 1741.37 1375.84 1724.32 1379.28 1724.22 C 1382.08 1725.89 1381.02 1725.69 1384.01 1726.13 L 1384.29 1724.53 L 1382.06 1723.53 L 1384.97 1723.83 L 1385.69 1725.4 L 1384.7 1726.77 C 1379.41 1727.5 1376.03 1727.11 1373.26 1731.89 L 1373.86 1732.73 C 1376.61 1731.23 1385.5 1728.44 1389.07 1727.26 L 1425.24 1714.98 C 1436.7 1710.97 1443.77 1710.03 1454.56 1703.11 C 1459.46 1699.97 1470.95 1697.32 1477.12 1694.31 C 1486.12 1689.91 1493.92 1683.18 1504.14 1683.51 C 1504.78 1681.83 1504.6 1682.81 1504.33 1680.53 C 1508.06 1680.45 1516.64 1680.94 1519.1 1679.33 C 1518.92 1677.14 1518.84 1677.71 1519.21 1675.58 C 1522.64 1675.11 1525.81 1674.86 1529.26 1674.59 L 1529.6 1673.35 C 1526.87 1673.02 1527.03 1673.44 1524.97 1672.17 C 1529 1669.7 1532.62 1667.43 1536.54 1664.74 C 1540.99 1665.72 1538.51 1663.7 1540.95 1664.65 C 1540.4 1667 1539.93 1666.93 1540.59 1668.47 C 1546.35 1660.24 1545.32 1667.09 1551.47 1663.47 C 1550.01 1662.55 1544.59 1662.33 1542.48 1662.13 L 1542.21 1661.33 C 1551.05 1655.39 1561.63 1651 1570.53 1645.28 C 1573.64 1643.28 1578.45 1634.84 1582.26 1632.73 C 1587.86 1629.64 1595.15 1628.77 1600.85 1626.06 C 1603.22 1624.93 1602.84 1624.46 1603.23 1622.48 L 1600.42 1618.68 C 1604.13 1614.78 1616.67 1606.19 1621.64 1602.48 L 1621.5 1603.52 C 1620.92 1607.54 1620.97 1607.79 1618.91 1611.13 L 1619.06 1612.41 C 1623.13 1611.95 1631.22 1605.2 1635.03 1602.28 L 1636.15 1602.42 C 1637.93 1601.72 1639.2 1601.16 1640.6 1599.85 C 1649.05 1591.95 1668.72 1581.16 1672.84 1570.98 L 1671.3 1569.53 L 1671.76 1569.36 C 1667.93 1569.87 1668.83 1570.11 1665.36 1573.52 L 1665.64 1569.6 L 1668.38 1565.72 C 1676.58 1564.04 1675.25 1558.21 1676.57 1552.18 C 1678.96 1549.34 1687.45 1542.05 1690.63 1539.21 L 1691.43 1539.98 C 1696.81 1538.27 1694.62 1535.11 1700.16 1534.03 L 1701.6 1536.3 L 1703.74 1536.22 C 1701.47 1539.53 1700.51 1540.77 1698.94 1544.4 L 1699.67 1545.25 C 1707.02 1544.02 1732.9 1511.33 1744.31 1507.31 C 1759.67 1502.11 1772.93 1511.61 1789.4 1510.71 C 1803.67 1509.94 1811.37 1503.68 1824.43 1500.98 L 1825.17 1499.68 L 1824 1498.21 L 1821.28 1497.93 C 1818.61 1499.69 1819.72 1499.51 1816.9 1499.69 L 1815.57 1497.78 L 1813.88 1500.43 L 1812.4 1500.46 L 1812.59 1497.51 C 1810.94 1494.76 1809.44 1495.26 1805.21 1494.07 z M 1203.3 1781.48 L 1203.45 1782.72 C 1207.79 1781.31 1213.44 1778.86 1217.74 1777.93 C 1224.75 1776.42 1259.29 1772.29 1262.68 1768.05 L 1260.79 1767.25 C 1245.44 1771.13 1230.58 1774.47 1214.78 1776 C 1207.81 1776.68 1202.57 1777.5 1196.12 1780.43 C 1198.57 1780.82 1200.84 1781.18 1203.3 1781.48 z M 870.125 1780.92 L 871.294 1780.42 C 868.135 1779.96 860.568 1779.19 858.271 1778.49 L 853.824 1779.29 C 856.797 1781.2 866.46 1781.03 870.125 1780.92 z M 1297.63 1754.67 C 1302.1 1754.25 1300.48 1755.22 1303.1 1752.54 L 1302.44 1751.18 L 1300.24 1751.36 C 1297.11 1752.95 1296.15 1752.9 1294.28 1755.52 C 1296.17 1755.23 1295.86 1755.37 1297.63 1754.67 z"/>
<path transform="translate(0,0)" fill="rgb(127,126,125)" fill-opacity="0.196078" d="M 1260.79 1767.25 L 1262.68 1768.05 C 1259.29 1772.29 1224.75 1776.42 1217.74 1777.93 C 1213.44 1778.86 1207.79 1781.31 1203.45 1782.72 L 1203.3 1781.48 C 1200.84 1781.18 1198.57 1780.82 1196.12 1780.43 C 1202.57 1777.5 1207.81 1776.68 1214.78 1776 C 1230.58 1774.47 1245.44 1771.13 1260.79 1767.25 z"/>
<path transform="translate(0,0)" fill="rgb(127,126,125)" fill-opacity="0.235294" d="M 858.271 1778.49 C 860.568 1779.19 868.135 1779.96 871.294 1780.42 L 870.125 1780.92 C 866.46 1781.03 856.797 1781.2 853.824 1779.29 L 858.271 1778.49 z"/>
<path transform="translate(0,0)" fill="rgb(127,126,125)" fill-opacity="0.254902" d="M 1300.24 1751.36 L 1302.44 1751.18 L 1303.1 1752.54 C 1300.48 1755.22 1302.1 1754.25 1297.63 1754.67 C 1295.86 1755.37 1296.17 1755.23 1294.28 1755.52 C 1296.15 1752.9 1297.11 1752.95 1300.24 1751.36 z"/>
<path transform="translate(0,0)" fill="url(#Gradient10)" d="M 617.369 1730 C 612.385 1730.67 604.727 1730.42 599.512 1730.43 C 600.897 1733.35 602.292 1735.23 601.655 1738.27 C 599.031 1739.27 600.281 1739.38 597.815 1738.38 C 596.315 1735.5 596.082 1734.82 593.978 1732.27 L 592.699 1732.65 C 591.887 1735.62 591.885 1735.84 590.429 1738.5 L 588.239 1738.88 C 586.266 1737.27 585.103 1736.35 582.982 1734.95 L 579.008 1736.04 C 575.621 1733.71 575.337 1730.62 572.725 1726.2 C 565.662 1728.9 566.014 1727.4 559.361 1724.8 C 555.131 1723.14 551.661 1721.83 547.817 1719.23 L 547.795 1716.42 L 546.403 1715.3 C 542.379 1715.98 540.147 1717.04 538.168 1713.05 C 539.389 1711.42 540.695 1709.94 542.123 1708.49 C 539.096 1706.62 540.071 1710.63 537.458 1709.18 C 527.099 1703.43 518.657 1695.2 505.957 1695.16 C 499.498 1695.14 501.687 1694.45 498.322 1689.99 C 496.997 1688.23 488.359 1688.41 486.505 1687.39 C 478.234 1682.83 469.517 1675.48 461.091 1671.44 C 460.009 1670.92 458.714 1672.34 457.258 1673.34 L 455.284 1672.9 C 455.297 1670.43 455.352 1670.16 454.817 1667.77 C 435.787 1662.3 396.606 1635.89 379.48 1624.15 C 374.575 1620.78 372.947 1612.5 369.158 1610.32 C 365.647 1610 364.158 1610.09 360.908 1608.6 C 358.837 1606.01 357.848 1601.6 356.832 1598.31 C 353.803 1597.52 355.336 1597.73 351.703 1599.04 L 351.285 1600.23 L 354.282 1601.6 L 353.201 1602.29 C 351.109 1601.89 349.429 1601.26 347.407 1600.6 C 343.886 1588.96 345.586 1596.64 339.857 1592.7 L 343.426 1591.93 C 339.732 1588.57 330.975 1578.31 328.481 1577.33 L 328.38 1579.01 L 327.238 1579.94 C 325.713 1578.11 325.57 1575.29 322.096 1571.8 C 308.154 1569.32 313.166 1557.55 305.191 1557.78 L 303.36 1560.69 C 300.697 1559.07 302.96 1556.09 299.811 1553.93 C 298.095 1555.39 297.908 1555.57 295.991 1556.84 C 293.476 1553.46 294.161 1555.39 294.544 1550.63 C 292.008 1547.22 291.788 1546.98 288.6 1544.17 C 287.938 1545.16 287.733 1545.9 287.405 1547.03 C 284.046 1542.58 287.607 1541.85 283.992 1537.82 L 278.809 1537.93 C 275.881 1535.93 277.101 1532.89 272.773 1529.21 C 269.022 1529.71 272.129 1532.36 266.98 1534.16 L 265.457 1532.99 C 265.199 1530.31 265.348 1528.22 263.751 1526.16 L 261.654 1526.23 C 260.628 1529.35 261.317 1528.36 259.202 1530.67 L 256.344 1530.7 C 253.088 1528.56 250.928 1526.5 247.161 1526.54 C 241.562 1528.91 247.439 1527.12 244.795 1531.98 C 239.465 1531.36 237.912 1524.71 232.188 1526.31 C 230.545 1528.15 230.546 1528.36 228.603 1529.79 C 226.884 1526.88 228.083 1528.11 224.279 1526.67 L 223.934 1524.97 L 225.404 1523.83 L 225.422 1523 L 215.939 1525.44 C 204.167 1521.38 194.389 1518.26 183.12 1512.45 C 173.896 1512.13 169.914 1501.94 169.61 1501.8 C 154.619 1495.01 155.036 1498.26 153.247 1480.34 C 152.791 1475.78 144.266 1467.18 143.236 1463.75 C 146.431 1462.16 145.711 1463.11 147.487 1460.53 C 145.05 1456.82 139.322 1457.84 137.834 1453.74 C 139.262 1451.55 139.378 1451.64 139.866 1449.12 C 125.238 1435.57 136.202 1440.12 137.938 1430.6 C 136.178 1428.14 135.62 1428.05 135.238 1425.29 C 137.599 1425.14 136.813 1425.38 138.963 1424.49 L 138.574 1422.45 L 135.33 1420.6 L 137.617 1417.71 L 136.928 1416.24 L 134.233 1417.36 C 133.195 1416.45 136.137 1407.67 136.604 1406.33 C 139.784 1397.14 137.211 1396.64 135.987 1387.92 C 137.362 1385.59 138.633 1384.55 140.546 1382.68 L 140.305 1379.77 C 138.189 1376.9 135.718 1374.07 135.712 1370.51 C 135.698 1363 133.717 1368.57 130.362 1364.44 C 134.919 1362.82 133.282 1364.18 135.961 1360.9 C 136.535 1355.87 136.174 1354.81 140.921 1352.71 L 140.126 1351.77 C 131.642 1354.78 136.699 1356.03 133.535 1361.78 L 131.14 1358.2 L 129.552 1358.24 C 128.774 1361.51 129.56 1360.7 127.699 1362.77 C 125.501 1359.45 124.44 1359.13 120.901 1356.92 L 119.739 1356.2 L 119.888 1355.01 C 122.868 1353 121.48 1353.11 124.262 1353.26 C 125.945 1356.47 125.045 1355.64 127.638 1357.77 L 128.91 1356.76 C 127.279 1348.31 114.403 1355.51 109.62 1346.84 C 104.616 1337.76 99.6885 1336.09 101.2 1325.9 L 100.135 1324.86 L 97.6726 1325.14 C 95.6042 1327.9 95.9821 1332.09 95.8552 1335.74 L 94.4915 1335.43 C 93.4367 1331.65 89.6588 1316.9 90.4383 1314.29 L 93.1464 1315.03 L 93.0442 1314.57 C 76.6038 1301.53 88.226 1302.16 84.5548 1285.88 C 83.623 1281.74 76.8564 1280.17 75.0043 1275.32 C 76.1588 1268.66 75.9512 1276.07 78.9992 1271.68 L 74.9455 1270.92 L 74.0794 1269.58 C 74.9834 1265.86 75.055 1262.58 77.4979 1260.44 L 81.8284 1261.71 L 81.2544 1259.74 C 77.4937 1258.39 76.6119 1260.39 72.9613 1260.3 C 72.3113 1256.71 74.2797 1257.51 75.9422 1252.35 C 74.7096 1250.52 74.5008 1250.32 72.8404 1248.98 L 71.4531 1247.87 C 70.874 1244.67 78.1101 1227.39 79.6136 1223.48 L 83.0083 1222.89 L 83.205 1221.05 C 81.3787 1218.29 81.683 1219.14 77.3786 1218.04 L 77.5357 1216.83 C 80.506 1217.29 81.1187 1217.65 83.9835 1216.75 C 86.2679 1211.38 87.8212 1201.05 97.6898 1203.47 C 93.0885 1209.42 87.2676 1226.54 87.5046 1234.22 C 87.7292 1241.49 88.5763 1275.34 92.8227 1280.01 C 96.5201 1281.22 91.9549 1281.46 97.8227 1288.13 L 99.4277 1287.84 C 115.378 1310.23 130.033 1323.15 157.591 1327.35 L 156.967 1328.6 L 153.079 1329.66 L 152.811 1331.35 C 157.628 1331.84 180.832 1333.41 182.909 1335.71 L 183.158 1337.08 L 179.971 1336.66 C 176.132 1342.92 177.643 1343.57 170.628 1342.78 L 170.144 1343.53 C 173.243 1345.09 177.059 1343.8 180.496 1342.89 L 182.817 1344.38 C 176.394 1350.25 171.505 1354.74 166.439 1361.78 C 144.613 1392.14 146.348 1433.41 171.788 1460.94 C 177.744 1467.39 184.602 1472.95 192.148 1477.44 L 191.276 1477.59 C 188.204 1478.08 187.794 1478.26 184.662 1477.56 C 184.496 1479.13 184.355 1480.48 184.258 1482.05 L 179.869 1480.28 C 180.319 1482.76 184.991 1490.07 186.619 1493.13 C 203.386 1503.25 221.271 1509.65 241.354 1506.95 C 247.666 1504.1 275.32 1500.63 282.102 1504.58 C 306.271 1518.69 322.514 1547.18 343.438 1565.9 C 348.532 1570.45 353.077 1578.17 358.631 1582.51 C 369.012 1589.81 381.997 1596.63 392.366 1603.98 L 433.19 1633.17 C 439.569 1637.8 446.101 1643.52 452.73 1647.57 C 505.369 1679.71 560.779 1705.93 617.369 1730 z"/>
<path transform="translate(0,0)" fill="rgb(127,126,125)" fill-opacity="0.286275" d="M 1133.94 1770.01 C 1144.11 1767.98 1162.67 1766.28 1173.5 1764.81 C 1198.42 1761.51 1223.23 1757.44 1247.89 1752.62 C 1403.27 1721.54 1540.31 1663.23 1663.65 1562.71 L 1668.38 1565.72 L 1665.64 1569.6 C 1657.88 1575.07 1652.92 1580.52 1646.16 1585.5 C 1640.73 1586.82 1627.79 1597.65 1623.34 1601.7 L 1621.64 1602.48 C 1616.67 1606.19 1604.13 1614.78 1600.42 1618.68 L 1603.23 1622.48 C 1602.84 1624.46 1603.22 1624.93 1600.85 1626.06 C 1595.15 1628.77 1587.86 1629.64 1582.26 1632.73 C 1578.45 1634.84 1573.64 1643.28 1570.53 1645.28 C 1561.63 1651 1551.05 1655.39 1542.21 1661.33 L 1542.48 1662.13 C 1544.59 1662.33 1550.01 1662.55 1551.47 1663.47 C 1545.32 1667.09 1546.35 1660.24 1540.59 1668.47 C 1539.93 1666.93 1540.4 1667 1540.95 1664.65 C 1538.51 1663.7 1540.99 1665.72 1536.54 1664.74 C 1532.62 1667.43 1529 1669.7 1524.97 1672.17 C 1527.03 1673.44 1526.87 1673.02 1529.6 1673.35 L 1529.26 1674.59 C 1525.81 1674.86 1522.64 1675.11 1519.21 1675.58 C 1518.84 1677.71 1518.92 1677.14 1519.1 1679.33 C 1516.64 1680.94 1508.06 1680.45 1504.33 1680.53 C 1504.6 1682.81 1504.78 1681.83 1504.14 1683.51 C 1493.92 1683.18 1486.12 1689.91 1477.12 1694.31 C 1470.95 1697.32 1459.46 1699.97 1454.56 1703.11 C 1443.77 1710.03 1436.7 1710.97 1425.24 1714.98 L 1389.07 1727.26 C 1385.5 1728.44 1376.61 1731.23 1373.86 1732.73 L 1373.26 1731.89 C 1376.03 1727.11 1379.41 1727.5 1384.7 1726.77 L 1385.69 1725.4 L 1384.97 1723.83 L 1382.06 1723.53 L 1384.29 1724.53 L 1384.01 1726.13 C 1381.02 1725.69 1382.08 1725.89 1379.28 1724.22 C 1375.84 1724.32 1347.12 1741.37 1331.53 1743.02 L 1331.03 1741.77 L 1332.6 1739.52 C 1304.61 1746.58 1276.56 1753.65 1248.44 1760.21 C 1240.41 1762.08 1216.25 1764.04 1210.1 1766.92 L 1209.79 1767.93 C 1212.42 1767.58 1213.1 1767.16 1215.52 1767.84 L 1217.08 1766.89 C 1222 1768.3 1232.77 1766.23 1234.65 1767.53 C 1230.7 1770.53 1182.01 1778.67 1177.62 1776.6 L 1177.91 1775.41 C 1185.56 1773.31 1199.29 1772.51 1205.62 1768.28 C 1202.16 1767.39 1201.3 1766.87 1197.86 1767.94 C 1191.74 1773.73 1189.58 1767.19 1183.34 1769.72 L 1180.7 1773.66 C 1177.53 1773.93 1175.68 1773.33 1173.14 1771.34 L 1171.55 1772.03 L 1172.21 1772.48 L 1170.17 1773.82 L 1169.41 1774.13 C 1166.4 1774.03 1163.43 1773.52 1160.37 1773.47 C 1154.32 1773.37 1135.2 1778.9 1133.94 1770.01 z"/>
<path transform="translate(0,0)" fill="url(#Gradient9)" d="M 627.474 1719.15 C 623.966 1716.11 623.495 1718.08 621.09 1715.25 L 626.039 1715.41 L 626.584 1714.64 C 624.433 1712.83 618.042 1713.09 613.35 1711.84 C 610.69 1709.51 609.85 1709.06 608.308 1705.81 C 612.438 1702.42 617.978 1707.61 624.329 1706.41 L 625.938 1706.81 C 635.131 1709.18 651.625 1715.38 661.25 1718.58 C 679.369 1724.5 697.626 1729.98 716.006 1735.02 C 783.803 1753.5 850.324 1763.75 920.067 1770.89 C 909.754 1770.68 909.061 1774.63 900.71 1776.29 L 900.989 1777.18 L 899.927 1778.08 C 890.329 1777.96 846.767 1778.6 839.986 1776.93 L 839.137 1777.49 C 842.23 1779.9 853.919 1782.47 859.676 1785.2 C 855.993 1786.61 850.279 1784.04 846.801 1782.39 C 837.981 1778.22 833.721 1784.78 826.254 1781.21 C 825.79 1780.63 823.299 1777.54 822.936 1777.35 C 817.994 1774.68 809.944 1782.54 805.33 1774.44 C 808.76 1772.04 807.592 1775.39 812.683 1773.08 L 812.495 1771.62 C 808.766 1769.57 803.424 1768.96 799.096 1768.15 L 799.08 1767.36 C 801.703 1766.12 804.032 1765.01 806.591 1763.6 C 798.32 1760.48 788.037 1763.12 780.453 1759.37 C 775.945 1757.15 773.334 1757.67 768.299 1758.73 C 772.016 1759.01 786.415 1763.02 789.761 1764.64 C 787.383 1768.58 780.581 1765.13 774.034 1766.82 L 772.948 1766.04 C 767.339 1765.73 757.904 1762.93 752.454 1761.18 C 749.141 1758.75 747.303 1759.39 744.366 1758.1 C 731.418 1752.39 723.976 1764.31 712.442 1754.17 C 712.369 1754.11 705.683 1755.95 701.186 1753.82 C 703.416 1753.26 704.564 1752.93 706.719 1752.14 C 703.807 1748.77 696.99 1747.99 693.007 1745.73 C 678.069 1737.26 662.275 1733.22 646.426 1727.33 C 640.139 1725 634.181 1721.66 627.474 1719.15 z M 838.388 1775.78 C 834.353 1772.29 824.937 1770.8 819.894 1770.99 C 826.687 1774.53 830.85 1774.84 838.388 1775.78 z"/>
<path transform="translate(0,0)" fill="rgb(127,126,125)" fill-opacity="0.247059" d="M 819.894 1770.99 C 824.937 1770.8 834.353 1772.29 838.388 1775.78 C 830.85 1774.84 826.687 1774.53 819.894 1770.99 z"/>
<path transform="translate(0,0)" fill="url(#Gradient8)" d="M 251.183 1485.66 C 261.694 1482.55 271.442 1478.83 280.802 1473.08 C 350.133 1554.09 435.466 1619.88 531.441 1666.34 C 549.926 1675.18 568.638 1683.54 587.557 1691.41 C 598.818 1696.05 613.536 1701.42 624.329 1706.41 C 617.978 1707.61 612.438 1702.42 608.308 1705.81 C 609.85 1709.06 610.69 1709.51 613.35 1711.84 C 618.042 1713.09 624.433 1712.83 626.584 1714.64 L 626.039 1715.41 L 621.09 1715.25 C 623.495 1718.08 623.966 1716.11 627.474 1719.15 C 608.62 1716.66 549.715 1687.11 528.11 1678.26 L 528.166 1677.5 C 525.471 1673.05 514.831 1666.78 509.165 1668.23 C 505.913 1664.99 486.447 1654.92 481.129 1651.85 C 466.546 1643.42 449.77 1634.44 436.198 1624.4 L 437.018 1623 C 435.558 1621.46 436.119 1621.74 434.296 1620.95 C 419.277 1614.44 401.81 1595.02 389.183 1587.25 C 388.365 1586.2 385.099 1584.4 383.711 1583.19 C 372.172 1573.05 357.886 1558.31 344.881 1550.54 C 338.092 1538.44 301.323 1509.69 290.683 1497.52 C 281.995 1487.59 271.047 1492.5 265.651 1490.14 C 274.24 1485.69 275.812 1489.26 287.041 1489.89 C 285.846 1488.54 282.707 1484.9 281.107 1484.38 C 272.336 1481.58 256.532 1492.39 249.651 1490.49 L 249.219 1488.54 L 248.963 1488.7 L 251.329 1487.47 L 251.183 1485.66 z"/>
<path transform="translate(0,0)" fill="rgb(127,126,125)" fill-opacity="0.32549" d="M 920.067 1770.89 C 959.311 1773.3 995.249 1775.57 1034.85 1775.23 C 1069.31 1774.94 1099.78 1772.27 1133.94 1770.01 C 1135.2 1778.9 1154.32 1773.37 1160.37 1773.47 C 1163.43 1773.52 1166.4 1774.03 1169.41 1774.13 C 1162.62 1777.53 1127.32 1778.86 1116.87 1779.49 C 1117.04 1779.42 1054.09 1784.48 1052.3 1784.3 L 1042.74 1783.84 C 1042.78 1783.86 979.688 1783.5 976.221 1783.59 L 980.571 1784.9 L 980.169 1785.93 C 968.013 1785.46 947.973 1786.54 936.888 1784.23 C 924.44 1781.64 914.315 1779.09 900.989 1777.18 L 900.71 1776.29 C 909.061 1774.63 909.754 1770.68 920.067 1770.89 z"/>
<path transform="translate(0,0)" fill="url(#Gradient7)" d="M 1743.93 1483.32 C 1764.83 1495.24 1781.67 1497.55 1805.21 1494.07 C 1809.44 1495.26 1810.94 1494.76 1812.59 1497.51 L 1812.4 1500.46 L 1813.88 1500.43 L 1815.57 1497.78 L 1816.9 1499.69 C 1819.72 1499.51 1818.61 1499.69 1821.28 1497.93 L 1824 1498.21 L 1825.17 1499.68 L 1824.43 1500.98 C 1811.37 1503.68 1803.67 1509.94 1789.4 1510.71 C 1772.93 1511.61 1759.67 1502.11 1744.31 1507.31 C 1732.9 1511.33 1707.02 1544.02 1699.67 1545.25 L 1698.94 1544.4 C 1700.51 1540.77 1701.47 1539.53 1703.74 1536.22 L 1701.6 1536.3 L 1700.16 1534.03 C 1694.62 1535.11 1696.81 1538.27 1691.43 1539.98 L 1690.63 1539.21 C 1692.3 1536.98 1706.74 1523.55 1709.73 1520.61 C 1721.81 1508.82 1733.23 1496.37 1743.93 1483.32 z"/>
<path transform="translate(0,0)" fill="url(#Gradient6)" d="M 186.619 1493.13 C 184.991 1490.07 180.319 1482.76 179.869 1480.28 L 184.258 1482.05 C 184.355 1480.48 184.496 1479.13 184.662 1477.56 C 187.794 1478.26 188.204 1478.08 191.276 1477.59 L 192.148 1477.44 C 204.041 1482.86 212.232 1486.17 225.451 1487.24 L 223.326 1489.77 L 224.097 1491.48 C 226.176 1492.19 227.173 1492.31 228.932 1493.43 C 234.064 1493.76 247.842 1493.5 250.65 1494.15 C 244.91 1495.89 239.417 1496.24 233.482 1496.87 L 242.468 1497.16 C 239.72 1500.79 237.014 1498.41 236.655 1501.87 L 237.352 1502.43 C 239.412 1504.14 240.152 1504.52 241.354 1506.95 C 221.271 1509.65 203.386 1503.25 186.619 1493.13 z"/>
<path transform="translate(0,0)" fill="rgb(135,134,133)" fill-opacity="0.168627" d="M 1874.65 1320.39 C 1878.68 1321.11 1878.96 1321.17 1882.66 1319.46 L 1884.91 1320.05 C 1890.39 1331.35 1858.33 1340.29 1851.34 1344.54 C 1847.38 1346.94 1840.3 1351.61 1836.04 1351.73 L 1828.19 1347.31 L 1833.09 1337.27 C 1833.96 1339.9 1833.99 1339.74 1835.83 1341.87 C 1844.28 1343.88 1859.26 1326.49 1869.86 1326.61 C 1871.65 1326.64 1872.86 1326.38 1874.39 1325.48 C 1871.65 1323.39 1872.44 1324.04 1868.44 1323.68 L 1867.16 1322.14 C 1869.59 1321.34 1872.13 1320.92 1874.65 1320.39 z"/>
<path transform="translate(0,0)" fill="rgb(135,134,133)" fill-opacity="0.309804" d="M 197.563 1322.92 L 200.589 1332.58 C 193.847 1336.65 189.195 1339.75 182.817 1344.38 L 180.496 1342.89 C 177.059 1343.8 173.243 1345.09 170.144 1343.53 L 170.628 1342.78 C 177.643 1343.57 176.132 1342.92 179.971 1336.66 L 183.158 1337.08 L 182.909 1335.71 C 180.832 1333.41 157.628 1331.84 152.811 1331.35 L 153.079 1329.66 L 156.967 1328.6 L 157.591 1327.35 C 174.567 1328.6 180.845 1326.98 197.563 1322.92 z"/>
<path transform="translate(0,0)" fill="rgb(135,134,133)" fill-opacity="0.258824" d="M 1839.49 1321.13 C 1850.84 1323.03 1855.7 1323.03 1867.16 1322.14 L 1868.44 1323.68 C 1872.44 1324.04 1871.65 1323.39 1874.39 1325.48 C 1872.86 1326.38 1871.65 1326.64 1869.86 1326.61 C 1859.26 1326.49 1844.28 1343.88 1835.83 1341.87 C 1833.99 1339.74 1833.96 1339.9 1833.09 1337.27 C 1835.36 1332.12 1837.44 1326.41 1839.49 1321.13 z"/>
<path transform="translate(0,0)" fill="url(#Gradient5)" d="M 344.881 1550.54 C 357.886 1558.31 372.172 1573.05 383.711 1583.19 C 385.099 1584.4 388.365 1586.2 389.183 1587.25 L 387.977 1589.32 C 390.562 1591.8 393.961 1594.73 395.829 1597.67 C 382.952 1588.74 375.947 1579.24 361.121 1575.96 C 359.619 1575.63 342.714 1555.17 342.469 1551.75 L 344.881 1550.54 z"/>
<path transform="translate(0,0)" fill="url(#Gradient4)" d="M 1665.36 1573.52 C 1668.83 1570.11 1667.93 1569.87 1671.76 1569.36 L 1671.3 1569.53 L 1672.84 1570.98 C 1668.72 1581.16 1649.05 1591.95 1640.6 1599.85 C 1639.2 1601.16 1637.93 1601.72 1636.15 1602.42 L 1635.03 1602.28 L 1633.58 1601.43 C 1628.7 1602.53 1628.25 1602.31 1623.34 1601.7 C 1627.79 1597.65 1640.73 1586.82 1646.16 1585.5 C 1646.81 1585.96 1647.73 1586.28 1648.5 1586.62 C 1654.33 1583.86 1660.22 1577.95 1665.36 1573.52 z"/>
<path transform="translate(0,0)" fill="rgb(135,134,133)" fill-opacity="0.298039" d="M 251.183 1485.66 L 251.329 1487.47 L 248.963 1488.7 L 249.219 1488.54 L 249.651 1490.49 C 256.532 1492.39 272.336 1481.58 281.107 1484.38 C 282.707 1484.9 285.846 1488.54 287.041 1489.89 C 275.812 1489.26 274.24 1485.69 265.651 1490.14 C 263.005 1491.08 252.879 1494.56 250.65 1494.15 C 247.842 1493.5 234.064 1493.76 228.932 1493.43 C 227.173 1492.31 226.176 1492.19 224.097 1491.48 L 223.326 1489.77 L 225.451 1487.24 C 234.311 1487.87 242.404 1486.67 251.183 1485.66 z"/>
<path transform="translate(0,0)" fill="url(#Gradient3)" d="M 1169.41 1774.13 L 1170.17 1773.82 C 1169.05 1779.13 1166.01 1782.34 1160.13 1782.05 L 1160.3 1781.76 C 1145.08 1783.51 1131.62 1785.68 1116.87 1779.49 C 1127.32 1778.86 1162.62 1777.53 1169.41 1774.13 z"/>
<path transform="translate(0,0)" fill="rgb(135,134,133)" fill-opacity="0.235294" d="M 389.183 1587.25 C 401.81 1595.02 419.277 1614.44 434.296 1620.95 C 436.119 1621.74 435.558 1621.46 437.018 1623 L 436.198 1624.4 C 420.573 1618.61 408.686 1607.61 395.829 1597.67 C 393.961 1594.73 390.562 1591.8 387.977 1589.32 L 389.183 1587.25 z"/>
<path transform="translate(0,0)" fill="rgb(127,126,125)" fill-opacity="0.262745" d="M 1042.74 1783.84 L 1052.3 1784.3 C 1056.37 1786.58 1067.92 1783.47 1074.15 1786.66 C 1070.71 1789.4 1028.89 1789.5 1025.53 1787.63 L 1025.91 1786.38 C 1033.3 1784.61 1033.4 1784.94 1041.01 1784.94 L 1042.74 1783.84 z"/>
<path transform="translate(0,0)" fill="url(#Gradient2)" d="M 774.034 1766.82 L 774.02 1767.78 C 770.556 1769.59 770.389 1771.67 766.019 1772.23 C 762.129 1772.74 758.214 1771.49 755.347 1768.81 C 752.584 1766.26 752.593 1764.82 752.454 1761.18 C 757.904 1762.93 767.339 1765.73 772.948 1766.04 L 774.034 1766.82 z"/>
<path transform="translate(0,0)" fill="url(#Gradient1)" d="M 1623.34 1601.7 C 1628.25 1602.31 1628.7 1602.53 1633.58 1601.43 L 1635.03 1602.28 C 1631.22 1605.2 1623.13 1611.95 1619.06 1612.41 L 1618.91 1611.13 C 1620.97 1607.79 1620.92 1607.54 1621.5 1603.52 L 1621.64 1602.48 L 1623.34 1601.7 z"/>
<path transform="translate(0,0)" fill="rgb(135,134,133)" fill-opacity="0.243137" d="M 1676.57 1552.18 C 1675.25 1558.21 1676.58 1564.04 1668.38 1565.72 L 1663.65 1562.71 L 1676.57 1552.18 z"/>
<path transform="translate(0,0)" fill="rgb(135,134,133)" fill-opacity="0.243137" d="M 1665.64 1569.6 L 1665.36 1573.52 C 1660.22 1577.95 1654.33 1583.86 1648.5 1586.62 C 1647.73 1586.28 1646.81 1585.96 1646.16 1585.5 C 1652.92 1580.52 1657.88 1575.07 1665.64 1569.6 z"/>
<path transform="translate(0,0)" fill="rgb(127,126,125)" fill-opacity="0.247059" d="M 509.165 1668.23 C 514.831 1666.78 525.471 1673.05 528.166 1677.5 L 528.11 1678.26 C 524.784 1677.63 512.877 1670.36 509.165 1668.23 z"/>
</svg>